<svg version="1.1" id="Capa_1" xmlns="http://www.w3.org/2000/svg" x="0" y="0" width="475.085" height="475.085" style="enable-background:new 0 0 475.085 475.085" xml:space="preserve"><g fill="#496373"><path d="M237.541 328.897c25.128 0 46.632-8.946 64.523-26.83 17.888-17.884 26.833-39.399 26.833-64.525V91.365c0-25.126-8.938-46.632-26.833-64.525C284.173 8.951 262.669 0 237.541 0c-25.125 0-46.632 8.951-64.524 26.84-17.893 17.89-26.838 39.399-26.838 64.525v146.177c0 25.125 8.949 46.641 26.838 64.525 17.889 17.884 39.399 26.83 64.524 26.83z"/><path d="M396.563 188.15c-3.606-3.617-7.898-5.426-12.847-5.426-4.944 0-9.226 1.809-12.847 5.426-3.613 3.616-5.421 7.898-5.421 12.845v36.547c0 35.214-12.518 65.333-37.548 90.362-25.022 25.03-55.145 37.545-90.36 37.545-35.214 0-65.334-12.515-90.365-37.545-25.028-25.022-37.541-55.147-37.541-90.362v-36.547c0-4.947-1.809-9.229-5.424-12.845-3.617-3.617-7.895-5.426-12.847-5.426s-9.235 1.809-12.85 5.426c-3.618 3.616-5.426 7.898-5.426 12.845v36.547c0 42.065 14.04 78.659 42.112 109.776 28.073 31.118 62.762 48.961 104.068 53.526v37.691h-73.089c-4.949 0-9.231 1.811-12.847 5.428-3.617 3.614-5.426 7.898-5.426 12.847 0 4.941 1.809 9.233 5.426 12.847 3.616 3.614 7.898 5.428 12.847 5.428h182.719c4.948 0 9.236-1.813 12.847-5.428 3.621-3.613 5.431-7.905 5.431-12.847 0-4.948-1.81-9.232-5.431-12.847-3.61-3.617-7.898-5.428-12.847-5.428h-73.08v-37.691c41.299-4.565 75.985-22.408 104.061-53.526 28.076-31.117 42.12-67.711 42.12-109.776v-36.547c0-4.946-1.813-9.225-5.435-12.845z"/></g></svg>