<svg xmlns="http://www.w3.org/2000/svg" width="25" height="12"><path id="Send" d="M22.033 9.375c-.342.864-.885 1.532-1.758 1.889a2.814 2.814 0 0 1-1.032.214c-4.157.015-8.314.011-12.472.009-.74-.001-1.249-.316-1.459-.899-.143-.397-.1-.797.055-1.178C6.43 6.803 7.488 4.194 8.573 1.597c.3-.719.807-1.281 1.608-1.495.248-.066.512-.101.769-.101 4.088-.006 8.176-.004 12.264-.003.655.001 1.245.146 1.598.761.075.132.126.277.188.416v.821c-.99 2.46-1.99 4.915-2.967 7.379zM23.314.814c-.078-.004-.157-.002-.234-.002l-3.879.001c-2.768 0-5.537.002-8.305 0-.532 0-.979.189-1.268.628a6.76 6.76 0 0 0-.599 1.131c-.808 1.962-1.601 3.93-2.396 5.897-.189.467-.39.933-.539 1.413-.146.471.096.764.595.789.095.005.191.003.286.003h6.065c1.987 0 3.975-.028 5.961.012a2.345 2.345 0 0 0 2.201-1.458c.718-1.813 1.464-3.616 2.196-5.424.25-.618.517-1.232.73-1.863.232-.687-.083-1.097-.814-1.127zm-1.167 2.452a9950.384 9950.384 0 0 1-7.139 3.965c-.289.16-.459.144-.696-.095a1872.578 1872.578 0 0 1-3.963-4.004c-.196-.198-.205-.453-.037-.615.181-.174.416-.157.641.068.779.78 1.545 1.574 2.331 2.347.498.488 1.023.949 1.535 1.422l-.043.066c.144-.077.288-.153.43-.232 2.19-1.218 4.38-2.436 6.572-3.65.116-.064.265-.137.382-.115.13.024.291.129.343.242.047.101-.007.276-.071.388-.054.094-.181.155-.285.213zM11.424 6.639c.111.035.182.196.296.331-.127.159-.204.308-.325.399a423.185 423.185 0 0 1-3.161 2.345c-.234.173-.477.156-.626-.028-.161-.199-.123-.429.13-.619.746-.56 1.497-1.111 2.247-1.666.326-.241.642-.498.985-.713a.61.61 0 0 1 .454-.049zm6.891.195c.534.779 1.06 1.562 1.585 2.347.05.075.069.17.123.307-.085.096-.158.239-.272.289-.106.047-.265.02-.383-.023-.086-.031-.153-.134-.21-.218-.508-.744-1.013-1.49-1.516-2.238-.18-.267-.165-.492.033-.637.211-.153.454-.099.64.173zM5.883.798c-.075.016-.154.014-.232.014C3.976.813 2.301.809.626.819.348.82.138.75 0 .508V.354c.097-.275.304-.36.586-.359 1.683.005 3.367.002 5.051.001.069 0 .14-.004.208.006.222.034.376.161.388.382.011.223-.126.366-.35.414zM.56 4.923c.972.004 1.944.001 2.916.004.294 0 .477.15.487.385.01.252-.166.423-.474.425-1.007.006-2.013 0-3.02.004-.232.001-.352-.145-.469-.306v-.154c.092-.263.288-.36.56-.358zm0 4.928c.607.006 1.214.001 1.822.002.313.001.512.151.521.385.01.246-.194.425-.508.427-.633.005-1.267-.004-1.9.004-.242.003-.375-.134-.495-.306v-.155c.093-.261.286-.36.56-.357z" fill="#8C0D17"/></svg>